<?xml version="1.0" encoding="utf-8"?>
<!-- Generator: Adobe Illustrator 16.0.0, SVG Export Plug-In . SVG Version: 6.00 Build 0)  -->
<!DOCTYPE svg PUBLIC "-//W3C//DTD SVG 1.1//EN" "http://www.w3.org/Graphics/SVG/1.1/DTD/svg11.dtd">
<svg version="1.1" id="Layer_1" xmlns="http://www.w3.org/2000/svg" xmlns:xlink="http://www.w3.org/1999/xlink" x="0px" y="0px"
	 width="180px" height="36px" viewBox="0 0 180 36" enable-background="new 0 0 180 36" xml:space="preserve">
<g>
	<polygon fill="#FFFFFF" points="124.058,1.64 109.6,3.694 109.6,8.581 124.058,6.527 	"/>
	<path fill="#FFFFFF" d="M15.686,16.016c1.103,0,2.118,0.127,3.049,0.379c0.93,0.252,2.009,0.646,3.241,1.182l1.514-3.783
		c-0.979-0.693-2.255-1.253-3.832-1.679s-2.901-0.637-3.972-0.637c-2.397,0-4.492,0.503-6.29,1.511
		c-1.797,1.01-3.178,2.419-4.137,4.233c-0.963,1.814-1.442,3.915-1.442,6.312c0,2.432,0.479,4.547,1.442,6.361
		c0.959,1.814,2.324,3.223,4.09,4.23c1.765,1.012,3.846,1.515,6.241,1.515c1.103,0,2.443-0.205,4.02-0.618
		c1.576-0.406,2.854-0.955,3.831-1.65l-1.561-3.877c-1.137,0.534-2.176,0.93-3.121,1.178c-0.946,0.254-2.003,0.381-3.169,0.381
		c-1.923,0-3.459-0.693-4.611-2.082c-1.149-1.387-1.727-3.197-1.727-5.438c0.032-2.176,0.641-3.971,1.823-5.39
		C12.257,16.727,13.794,16.016,15.686,16.016z"/>
	<polygon fill="#FFFFFF" points="26.183,35.64 31.479,35.64 31.479,4.246 26.183,4.998 	"/>
	<path fill="#FFFFFF" d="M52.452,12.966c-1.781-0.995-3.87-1.488-6.265-1.488c-2.396,0-4.493,0.503-6.291,1.511
		c-1.796,1.01-3.175,2.419-4.137,4.233s-1.442,3.915-1.442,6.312c0,2.432,0.48,4.547,1.442,6.361s2.324,3.223,4.09,4.23
		c1.767,1.012,3.847,1.515,6.242,1.515c2.398,0,4.494-0.503,6.29-1.515c1.798-1.008,3.185-2.426,4.163-4.256
		c0.977-1.826,1.465-3.937,1.465-6.336c0-2.396-0.481-4.506-1.442-6.336C55.604,15.37,54.233,13.959,52.452,12.966z M50.75,28.926
		c-1.182,1.416-2.736,2.127-4.66,2.127s-3.459-0.693-4.611-2.082c-1.15-1.387-1.727-3.197-1.727-5.438
		c0.032-2.176,0.64-3.971,1.822-5.39c1.182-1.417,2.72-2.127,4.612-2.127c1.923,0,3.459,0.702,4.61,2.104
		c1.151,1.403,1.727,3.221,1.727,5.462C52.524,25.725,51.932,27.506,50.75,28.926z"/>
	<path fill="#FFFFFF" d="M75.742,27.977c-2.555,2.113-4.791,3.172-6.715,3.172c-2.364,0-3.548-1.592-3.548-4.777V11.478
		l-5.296,0.755v14.471c0,5.959,2.522,8.937,7.567,8.937c1.386,0,2.869-0.317,4.445-0.942c1.576-0.631,3.025-1.482,4.351-2.556
		l0.946,3.498h3.593V11.478l-5.344,0.764V27.977z"/>
	<path fill="#FFFFFF" d="M134.097,27.977c-2.556,2.113-4.796,3.172-6.719,3.172c-2.363,0-3.543-1.592-3.543-4.777V11.478
		l-5.299,0.755v14.471c0,5.959,2.521,8.937,7.567,8.937c1.387,0,2.867-0.317,4.446-0.942c1.573-0.631,3.025-1.482,4.351-2.556
		l0.941,3.498h3.599V11.478l-5.344,0.764V27.977z"/>
	<path fill="#FFFFFF" d="M99.953,13.038c-0.818-0.505-1.672-0.891-2.557-1.16c-0.878-0.268-1.682-0.4-2.408-0.4
		c-2.337,0-4.375,0.493-6.123,1.488c-1.751,0.993-3.089,2.396-4.022,4.209c-0.93,1.813-1.395,3.917-1.395,6.312
		c0,2.428,0.465,4.557,1.395,6.383c0.934,1.83,2.255,3.248,3.975,4.256c1.717,1.012,3.744,1.515,6.077,1.515
		c1.038,0,2.119-0.221,3.235-0.663c1.12-0.438,2.171-1.057,3.146-1.84l1.135,2.503h2.886V4.292l-5.343,0.749V13.038z M99.953,29.164
		c-0.787,0.66-1.575,1.141-2.366,1.439c-0.788,0.3-1.654,0.449-2.599,0.449c-1.893,0-3.381-0.693-4.469-2.082
		c-1.088-1.387-1.633-3.227-1.633-5.528c0-2.179,0.545-3.96,1.633-5.346s2.576-2.081,4.469-2.081c0.975,0,1.859,0.149,2.646,0.449
		c0.789,0.301,1.565,0.78,2.319,1.442V29.164z"/>
	<polygon fill="#FFFFFF" points="109.6,35.64 114.945,35.64 114.945,12.739 109.6,13.497 	"/>
	<path fill="#FFFFFF" d="M176.301,13.697c-1.183-1.481-3.019-2.22-5.509-2.22c-1.262,0-2.644,0.313-4.141,0.944
		c-1.497,0.63-2.906,1.468-4.231,2.506c-1.105-2.3-3.2-3.45-6.289-3.45c-1.261,0-2.65,0.321-4.161,0.968
		c-1.516,0.647-2.931,1.49-4.256,2.529l-0.948-2.742l-3.547,0.502V35.64h5.298V19.137c2.554-2.112,4.665-3.169,6.339-3.169
		c1.165,0,1.992,0.402,2.484,1.207c0.485,0.804,0.73,1.995,0.73,3.569V35.64h5.346V19.941l-0.052-0.994
		c1.167-0.913,2.255-1.638,3.263-2.177c1.012-0.535,1.974-0.803,2.886-0.803c1.165,0,1.992,0.402,2.484,1.207
		c0.489,0.804,0.73,1.995,0.73,3.569V35.64h5.346V19.941C178.074,17.261,177.482,15.183,176.301,13.697z"/>
</g>
</svg>
